<svg width="37" height="48" viewBox="0 0 37 48" fill="none" xmlns="http://www.w3.org/2000/svg">
<path d="M18.5 3C15.128 3.00516 11.8953 4.74521 9.51089 7.83844C7.12653 10.9317 5.78524 15.1255 5.78126 19.5C5.77722 23.0748 6.67733 26.5527 8.34351 29.4C8.34351 29.4 8.69039 29.9925 8.74704 30.078L18.5 45L28.2576 30.0705C28.3085 29.991 28.6565 29.4 28.6565 29.4L28.6577 29.3955C30.323 26.5494 31.2227 23.0732 31.2188 19.5C31.2148 15.1255 29.8735 10.9317 27.4891 7.83844C25.1048 4.74521 21.872 3.00516 18.5 3ZM18.5 25.5C17.5853 25.5 16.6911 25.1481 15.9305 24.4888C15.1699 23.8295 14.5771 22.8925 14.2271 21.7961C13.877 20.6997 13.7854 19.4933 13.9639 18.3295C14.1423 17.1656 14.5828 16.0965 15.2296 15.2574C15.8765 14.4182 16.7006 13.8468 17.5977 13.6153C18.4949 13.3838 19.4248 13.5026 20.2699 13.9567C21.115 14.4108 21.8374 15.1799 22.3456 16.1666C22.8538 17.1533 23.125 18.3133 23.125 19.5C23.1235 21.0907 22.6357 22.6157 21.7687 23.7404C20.9017 24.8652 19.7262 25.498 18.5 25.5Z" fill="white"/>
</svg>
