<svg width="27" height="36" viewBox="0 0 27 36" fill="none" xmlns="http://www.w3.org/2000/svg">
<path d="M15.1575 9.72955C18.3451 9.72955 19.7047 11.5422 19.7047 15.792H22.7361C22.7361 9.27487 20.0457 5.68794 15.1575 5.68794V9.72955ZM20.3443 20.7288C20.0531 20.3759 19.6703 20.1876 19.277 20.2038C18.8836 20.2201 18.5103 20.4394 18.236 20.8157L14.6089 25.7889C13.7358 25.5666 11.9806 24.8371 10.1739 22.4343C8.36716 20.0235 7.81999 17.6774 7.6578 16.5215L11.3849 11.6837C11.6675 11.3182 11.8323 10.8204 11.8444 10.2958C11.8566 9.77116 11.7152 9.26081 11.4501 8.87273L5.84956 0.662202C5.58437 0.272907 5.21581 0.0367713 4.82214 0.00394418C4.42847 -0.0288829 4.04071 0.144185 3.7412 0.486392L0.45211 4.24711C0.19006 4.59775 0.0336511 5.06442 0.0125531 5.55861C-0.0101826 6.06381 -0.443676 18.031 6.51647 27.3146C12.5884 35.4079 20.1943 36 22.289 36C22.5951 36 22.7831 35.9879 22.8331 35.9838C23.2037 35.9562 23.5536 35.7467 23.8153 35.3958L26.6345 31.0086C26.8914 30.6096 27.0214 30.0927 26.9971 29.5679C26.9728 29.043 26.7959 28.5515 26.5042 28.1977L20.3443 20.7288Z" fill="white"/>
</svg>
