<svg width="158" height="106" viewBox="0 0 158 106" fill="none" xmlns="http://www.w3.org/2000/svg">
<g filter="url(#filter0_d_485_343)">
<rect x="21.3229" y="21.3229" width="115.354" height="62.7905" rx="14.5521" fill="white" stroke="#D9D9D9" stroke-width="2.64583"/>
<path fill-rule="evenodd" clip-rule="evenodd" d="M53.3766 61.5544H48.132C47.7731 61.5544 47.4678 61.7654 47.4119 62.0518L45.2907 72.928C45.2485 73.1427 45.454 73.3361 45.7232 73.3361H48.227C48.5859 73.3361 48.8912 73.1252 48.9471 72.8382L49.5193 69.9047C49.5744 69.6175 49.8804 69.4068 50.2386 69.4068H51.8989C55.3537 69.4068 57.3475 68.0547 57.8684 65.3756C58.103 64.2034 57.8784 63.2825 57.1995 62.6373C56.4542 61.9292 55.1319 61.5544 53.3766 61.5544ZM53.9817 65.5268C53.6949 67.0488 52.257 67.0488 50.8667 67.0488H50.0752L50.6304 64.2063C50.6634 64.0347 50.8475 63.9081 51.0622 63.9081H51.4249C52.372 63.9081 53.2655 63.9081 53.7272 64.3446C54.0023 64.6052 54.0867 64.9921 53.9817 65.5268ZM69.0541 65.478H66.5426C66.3286 65.478 66.1437 65.6046 66.1107 65.7765L65.9996 66.3445L65.824 66.1387C65.2803 65.5004 64.068 65.2872 62.8578 65.2872C60.0822 65.2872 57.7119 66.9871 57.2502 69.3718C57.0103 70.5611 57.3514 71.6985 58.1857 72.4918C58.9512 73.2211 60.0464 73.525 61.3492 73.525C63.5853 73.525 64.8257 72.3621 64.8257 72.3621L64.7135 72.9266C64.6713 73.1424 64.8768 73.3359 65.1443 73.3359H67.4068C67.7666 73.3359 68.07 73.1249 68.1268 72.8379L69.4843 65.8861C69.5272 65.6723 69.3224 65.478 69.0541 65.478ZM65.5532 69.4312C65.3108 70.5915 64.1719 71.3705 62.7197 71.3705C61.9904 71.3705 61.4074 71.1813 61.0333 70.8229C60.6621 70.467 60.5209 69.9601 60.639 69.3959C60.8655 68.2453 62.0235 67.4411 63.4537 67.4411C64.1666 67.4411 64.7465 67.6325 65.1284 67.9942C65.5109 68.3595 65.6628 68.8692 65.5532 69.4312ZM79.9063 65.4777H82.4302C82.7837 65.4777 82.9899 65.7983 82.789 66.0328L74.3949 75.8316C74.2589 75.9903 74.035 76.0848 73.7958 76.0848H71.275C70.9201 76.0848 70.7129 75.7616 70.9184 75.5265L73.5321 72.5429L70.7523 65.9453C70.6561 65.7159 70.8655 65.4777 71.1671 65.4777H73.6471C73.9693 65.4777 74.2536 65.6488 74.3466 65.8982L75.8219 69.8829L79.303 65.7363C79.4392 65.5745 79.6657 65.4777 79.9063 65.4777Z" fill="#253B80"/>
<path fill-rule="evenodd" clip-rule="evenodd" d="M107.271 72.928L109.424 61.8528C109.457 61.6809 109.641 61.5543 109.855 61.5538H112.278C112.546 61.5538 112.751 61.7478 112.709 61.9625L110.586 72.8381C110.531 73.1251 110.226 73.3361 109.866 73.3361H107.702C107.434 73.3361 107.229 73.1426 107.271 72.928ZM90.787 61.5543H85.5414C85.1833 61.5543 84.8781 61.7653 84.822 62.0517L82.7008 72.928C82.6586 73.1426 82.8641 73.3361 83.132 73.3361H85.8235C86.0737 73.3361 86.2877 73.1886 86.3267 72.9877L86.9286 69.9047C86.984 69.6174 87.2899 69.4067 87.648 69.4067H89.3074C92.763 69.4067 94.7564 68.0547 95.2777 65.3755C95.513 64.2034 95.2869 63.2824 94.6084 62.6372C93.8635 61.9292 92.5422 61.5543 90.787 61.5543ZM91.392 65.5267C91.106 67.0487 89.668 67.0487 88.2768 67.0487H87.4861L88.0422 64.2062C88.0753 64.0346 88.2577 63.9081 88.4731 63.9081H88.8358C89.7823 63.9081 90.6766 63.9081 91.1379 64.3446C91.4133 64.6052 91.4971 64.9921 91.392 65.5267ZM106.463 65.478H103.953C103.738 65.478 103.554 65.6045 103.522 65.7764L103.411 66.3444L103.235 66.1386C102.691 65.5003 101.479 65.2871 100.269 65.2871C97.4936 65.2871 95.124 66.987 94.6623 69.3717C94.4231 70.5611 94.7628 71.6984 95.5971 72.4917C96.364 73.221 97.4578 73.5249 98.7606 73.5249C100.997 73.5249 102.237 72.362 102.237 72.362L102.125 72.9265C102.083 73.1424 102.288 73.3358 102.558 73.3358H104.819C105.177 73.3358 105.482 73.1248 105.538 72.8378L106.896 65.8861C106.938 65.6723 106.732 65.478 106.463 65.478ZM102.962 69.4311C102.721 70.5915 101.581 71.3704 100.129 71.3704C99.4008 71.3704 98.8167 71.1813 98.4422 70.8228C98.071 70.4669 97.9316 69.9601 98.0483 69.3958C98.2758 68.2452 99.4324 67.441 100.863 67.441C101.576 67.441 102.155 67.6325 102.538 67.9941C102.922 68.3595 103.074 68.8692 102.962 69.4311Z" fill="#179BD7"/>
<path d="M72.7863 57.6639L73.4312 54.3519L71.9949 54.3249H65.1367L69.9029 29.8849C69.9174 29.8111 69.9657 29.7423 70.0359 29.6935C70.1062 29.6446 70.1964 29.6177 70.29 29.6177H81.8541C85.6933 29.6177 88.3425 30.2638 89.7258 31.539C90.3742 32.1372 90.7873 32.7623 90.9871 33.4502C91.1965 34.1721 91.2004 35.0345 90.9956 36.0864L90.9807 36.1632V36.8371L91.6295 37.1343C92.1756 37.3685 92.6093 37.6367 92.9422 37.9438C93.4972 38.4553 93.856 39.1054 94.0076 39.8761C94.1641 40.6687 94.1123 41.6119 93.856 42.6797C93.5601 43.908 93.0817 44.9778 92.4358 45.8532C91.8413 46.6598 91.0844 47.3287 90.1858 47.8473C89.3277 48.3398 88.3081 48.7137 87.1554 48.9531C86.0382 49.1882 84.7649 49.307 83.368 49.307H82.468C81.8246 49.307 81.1993 49.4944 80.7088 49.8305C80.217 50.1734 79.8912 50.6418 79.7915 51.1544L79.7237 51.4526L78.5845 57.2899L78.5327 57.5043C78.5192 57.5724 78.4958 57.6062 78.4613 57.6292C78.4305 57.6498 78.3861 57.6639 78.3428 57.6639H72.7863Z" fill="#253B80"/>
<path d="M92.2425 36.2413C92.2081 36.4198 92.1687 36.6022 92.1243 36.7897C90.599 43.1218 85.3818 45.3093 78.7181 45.3093H75.3254C74.5105 45.3093 73.8238 45.7878 73.6968 46.4379L71.9596 55.3474L71.4677 57.8727C71.385 58.2995 71.7921 58.6843 72.3244 58.6843H78.3423C79.0549 58.6843 79.66 58.2656 79.7721 57.6973L79.8314 57.4499L80.9645 51.6353L81.0373 51.3164C81.148 50.7461 81.7545 50.3274 82.4671 50.3274H83.3671C89.1972 50.3274 93.7614 48.4131 95.0955 42.8735C95.6526 40.5594 95.3641 38.6272 93.8896 37.2683C93.4435 36.8585 92.8898 36.5185 92.2425 36.2413Z" fill="#179BD7"/>
<path d="M90.6458 35.7274C90.413 35.6725 90.1724 35.6227 89.9258 35.5778C89.6781 35.534 89.424 35.4951 89.1628 35.4612C88.2479 35.3415 87.2456 35.2847 86.1718 35.2847H77.1079C76.8847 35.2847 76.6728 35.3256 76.483 35.3994C76.0649 35.5619 75.7544 35.8819 75.6791 36.2737L73.7507 46.1503L73.6953 46.4384C73.8224 45.7883 74.5091 45.3097 75.3239 45.3097H78.7166C85.3804 45.3097 90.5979 43.1213 92.1229 36.7902C92.1683 36.6028 92.2066 36.4203 92.2411 36.2419C91.8553 36.0763 91.4372 35.9348 90.9872 35.8141C90.8765 35.7842 90.7619 35.7553 90.6458 35.7274Z" fill="#222D65"/>
<path d="M75.6806 36.2732C75.7558 35.8813 76.0667 35.5613 76.4844 35.3998C76.6757 35.326 76.8865 35.2851 77.1094 35.2851H86.1736C87.2475 35.2851 88.2497 35.3419 89.1642 35.4616C89.4258 35.4955 89.6799 35.5344 89.9276 35.5782C90.1742 35.6231 90.4145 35.673 90.6477 35.7278C90.7634 35.7557 90.878 35.7846 90.9901 35.8135C91.4401 35.9342 91.8582 36.0768 92.2439 36.2413C92.6978 33.9013 92.2404 32.308 90.6761 30.8653C88.9513 29.2771 85.8382 28.5971 81.855 28.5971H70.2906C69.4768 28.5971 68.783 29.0757 68.657 29.7267L63.8405 54.418C63.7454 54.9065 64.2113 55.3473 64.8203 55.3473H71.96L73.7525 46.1497L75.6806 36.2732Z" fill="#253B80"/>
</g>
<defs>
<filter id="filter0_d_485_343" x="0" y="0" width="158" height="105.436" filterUnits="userSpaceOnUse" color-interpolation-filters="sRGB">
<feFlood flood-opacity="0" result="BackgroundImageFix"/>
<feColorMatrix in="SourceAlpha" type="matrix" values="0 0 0 0 0 0 0 0 0 0 0 0 0 0 0 0 0 0 127 0" result="hardAlpha"/>
<feOffset/>
<feGaussianBlur stdDeviation="10"/>
<feComposite in2="hardAlpha" operator="out"/>
<feColorMatrix type="matrix" values="0 0 0 0 0 0 0 0 0 0 0 0 0 0 0 0 0 0 0.07 0"/>
<feBlend mode="normal" in2="BackgroundImageFix" result="effect1_dropShadow_485_343"/>
<feBlend mode="normal" in="SourceGraphic" in2="effect1_dropShadow_485_343" result="shape"/>
</filter>
</defs>
</svg>
